<?xml version="1.0" encoding="iso-8859-1"?>
<!-- Generator: Adobe Illustrator 19.0.0, SVG Export Plug-In . SVG Version: 6.00 Build 0)  -->
<svg version="1.1" id="Capa_1" xmlns="http://www.w3.org/2000/svg" xmlns:xlink="http://www.w3.org/1999/xlink" x="0px" y="0px"
	 viewBox="0 0 512 512" fill="#ffffff" style="enable-background:new 0 0 512 512;" xml:space="preserve">
<g>
	<g>
		<path d="M506.82,214.025c-3.132-1.348-6.767-0.691-9.242,1.664L360.516,346.223c-1.707,1.63-2.671,3.9-2.645,6.263
			c0.026,2.364,1.033,4.608,2.773,6.212l137.054,125.466c1.613,1.468,3.678,2.236,5.768,2.236c1.161,0,2.33-0.23,3.439-0.725
			c3.098-1.365,5.094-4.429,5.094-7.808v-256C512,218.462,509.969,215.373,506.82,214.025z M494.933,458.488L378.914,352.273
			l116.019-110.49V458.488z"/>
	</g>
</g>
<g>
	<g>
		<path d="M366.933,25.6H8.533C3.823,25.6,0,29.423,0,34.134v256c0,4.71,3.823,8.533,8.533,8.533h358.4
			c4.71,0,8.533-3.814,8.533-8.533v-256C375.467,29.423,371.644,25.6,366.933,25.6z M358.4,281.6H17.067V42.667H358.4V281.6z"/>
	</g>
</g>
<g>
	<g>
		<path d="M374.852,30.959c-1.289-3.234-4.429-5.359-7.919-5.359H8.533c-3.49,0-6.63,2.133-7.919,5.367
			c-1.297,3.243-0.495,6.938,2.031,9.344l179.2,170.667c1.647,1.57,3.772,2.355,5.888,2.355s4.241-0.776,5.88-2.355l179.2-170.667
			C375.339,37.897,376.149,34.202,374.852,30.959z M187.733,193.024L29.867,42.667H345.6L187.733,193.024z"/>
	</g>
</g>
<g>
	<g>
		<path d="M370.295,26.3c-3.14-1.348-6.775-0.7-9.25,1.655L223.983,158.49c-1.707,1.63-2.671,3.9-2.645,6.263
			c0.026,2.364,1.033,4.608,2.773,6.212l137.054,125.466c1.613,1.468,3.678,2.236,5.768,2.236c1.161,0,2.33-0.23,3.439-0.725
			c3.098-1.365,5.094-4.429,5.094-7.808v-256C375.467,30.729,373.436,27.64,370.295,26.3z M358.4,270.755L242.381,164.54
			L358.4,54.051V270.755z"/>
	</g>
</g>
<g>
	<g>
		<path d="M151.475,158.481L14.421,27.956c-2.475-2.355-6.118-3.012-9.25-1.664C2.031,27.631,0,30.72,0,34.134v256
			c0,3.388,1.997,6.451,5.094,7.808c1.109,0.486,2.278,0.725,3.439,0.725c2.091,0,4.156-0.768,5.76-2.236l137.054-125.474
			c1.749-1.596,2.748-3.849,2.773-6.212C154.146,162.381,153.19,160.111,151.475,158.481z M17.067,270.763V54.051l116.019,110.498
			L17.067,270.763z"/>
	</g>
</g>
<g>
	<g>
		<path d="M511.386,218.693c-1.289-3.234-4.429-5.359-7.919-5.359H366.933c-4.71,0-8.533,3.823-8.533,8.533V281.6H216.747
			c-3.49,0-6.63,2.133-7.927,5.359c-1.297,3.243-0.486,6.946,2.039,9.353l107.52,102.4c1.647,1.57,3.772,2.355,5.888,2.355
			s4.241-0.776,5.88-2.355l179.2-170.667C511.872,225.63,512.683,221.935,511.386,218.693z M324.267,380.758l-86.187-82.091h128.853
			c4.71,0,8.533-3.823,8.533-8.533V230.4h106.667L324.267,380.758z"/>
	</g>
</g>
<g>
	<g>
		<path d="M503.467,213.334H366.933c-4.71,0-8.533,3.823-8.533,8.533V281.6H145.067c-4.71,0-8.533,3.823-8.533,8.533v187.733
			c0,4.71,3.823,8.533,8.533,8.533h358.4c4.71,0,8.533-3.814,8.533-8.533v-256C512,217.157,508.177,213.334,503.467,213.334z
			 M494.933,469.334H153.6V298.667h213.333c4.71,0,8.533-3.823,8.533-8.533V230.4h119.467V469.334z"/>
	</g>
</g>
<g>
	<g>
		<path d="M288.009,346.215l-65.374-62.259c-1.587-1.51-3.695-2.355-5.888-2.355h-71.68c-4.71,0-8.533,3.823-8.533,8.533v187.733
			c0,3.388,1.997,6.451,5.094,7.808c1.109,0.486,2.278,0.725,3.439,0.725c2.091,0,4.156-0.768,5.76-2.236l137.054-125.474
			c1.749-1.596,2.748-3.849,2.773-6.212C290.68,350.115,289.724,347.845,288.009,346.215z M153.6,458.488V298.667h59.733
			l56.286,53.606L153.6,458.488z"/>
	</g>
</g>
<g>
	<g>
		<path d="M503.467,110.934h-76.8c-4.71,0-8.533,3.823-8.533,8.533s3.823,8.533,8.533,8.533h76.8c4.71,0,8.533-3.823,8.533-8.533
			S508.177,110.934,503.467,110.934z"/>
	</g>
</g>
<g>
	<g>
		<path d="M477.867,76.8h-76.8c-4.71,0-8.533,3.823-8.533,8.533s3.823,8.533,8.533,8.533h76.8c4.71,0,8.533-3.823,8.533-8.533
			S482.577,76.8,477.867,76.8z"/>
	</g>
</g>
<g>
	<g>
		<path d="M477.867,145.067h-76.8c-4.71,0-8.533,3.823-8.533,8.533c0,4.71,3.823,8.533,8.533,8.533h76.8
			c4.71,0,8.533-3.823,8.533-8.533C486.4,148.89,482.577,145.067,477.867,145.067z"/>
	</g>
</g>
<g>
	<g>
		<path d="M85.333,384h-76.8C3.823,384,0,387.823,0,392.534s3.823,8.533,8.533,8.533h76.8c4.71,0,8.533-3.823,8.533-8.533
			S90.044,384,85.333,384z"/>
	</g>
</g>
<g>
	<g>
		<path d="M110.933,418.134h-76.8c-4.71,0-8.533,3.823-8.533,8.533s3.823,8.533,8.533,8.533h76.8c4.71,0,8.533-3.823,8.533-8.533
			S115.644,418.134,110.933,418.134z"/>
	</g>
</g>
<g>
	<g>
		<path d="M110.933,349.867h-76.8c-4.71,0-8.533,3.823-8.533,8.533s3.823,8.533,8.533,8.533h76.8c4.71,0,8.533-3.823,8.533-8.533
			S115.644,349.867,110.933,349.867z"/>
	</g>
</g>
<g>
</g>
<g>
</g>
<g>
</g>
<g>
</g>
<g>
</g>
<g>
</g>
<g>
</g>
<g>
</g>
<g>
</g>
<g>
</g>
<g>
</g>
<g>
</g>
<g>
</g>
<g>
</g>
<g>
</g>
</svg>
