<svg xmlns="http://www.w3.org/2000/svg" width="25.706" height="36.53" viewBox="0 0 25.706 36.53"><g transform="translate(-13 -5)"><path d="M35.864,19.579A6.782,6.782,0,0,0,28.932,13,6.782,6.782,0,0,0,22,19.579a6.782,6.782,0,0,0,6.932,6.579A6.782,6.782,0,0,0,35.864,19.579Zm-12.478,0a5.553,5.553,0,0,1,11.091,0,5.553,5.553,0,0,1-11.091,0Z" transform="translate(-3.079 -2.737)" fill="#009A8C"/><path d="M29.371,37c4.532-7.374,9.335-16.033,9.335-18.941a12.855,12.855,0,1,0-25.706,0C13,20.965,17.8,29.624,22.335,37c-1.624.406-2.571,1.15-2.571,2.029,0,1.691,3.179,2.5,6.088,2.5s6.088-.744,6.088-2.5C31.941,38.148,31.062,37.4,29.371,37ZM25.853,6.353a11.622,11.622,0,0,1,11.5,11.7c0,2.165-3.856,9.606-10.215,20.091a1.539,1.539,0,0,1-1.285.676,1.45,1.45,0,0,1-1.285-.744C18.209,27.662,14.353,20.153,14.353,18.056A11.622,11.622,0,0,1,25.853,6.353Zm0,33.824c-3.044,0-4.668-.812-4.735-1.082,0-.135.474-.541,1.962-.879a2.742,2.742,0,0,1,.338.609,2.868,2.868,0,0,0,4.871,0,2.742,2.742,0,0,0,.338-.609,3.934,3.934,0,0,1,1.962.812C30.521,39.365,28.9,40.177,25.853,40.177Z" transform="translate(0 0)" fill="#009A8C"/></g></svg>