<svg xmlns="http://www.w3.org/2000/svg" width="38.71" height="37" viewBox="0 0 38.71 37"><g transform="translate(-2.5 -3.8)"><path d="M3,25.67V45.584a2.628,2.628,0,0,0,2.6,2.655H38.109a2.628,2.628,0,0,0,2.6-2.655V25.67" transform="translate(0 -7.939)" fill="none" stroke="#009A8C" stroke-linecap="round" stroke-linejoin="round" stroke-width="1"/><path d="M10.477,20.44A34.1,34.1,0,0,0,3,23.805H3L20.379,36.039a2.557,2.557,0,0,0,2.952,0L40.71,23.805h0a34.1,34.1,0,0,0-7.477-3.365" transform="translate(0 -5.817)" fill="none" stroke="#009A8C" stroke-linecap="round" stroke-linejoin="round" stroke-width="1"/><path d="M14.5,23.643V6.291A1.958,1.958,0,0,1,16.424,4.3h18.6a1.958,1.958,0,0,1,1.924,1.991V23.636l-9.766,6.976a2.493,2.493,0,0,1-2.911,0l-9.759-6.97" transform="translate(-3.866 0)" fill="none" stroke="#009A8C" stroke-linecap="round" stroke-linejoin="round" stroke-width="1"/><line x1="12.612" transform="translate(15.549 10.201)" fill="none" stroke="#009A8C" stroke-linecap="round" stroke-linejoin="round" stroke-width="1"/><line x1="6.306" transform="translate(15.626 20.099)" fill="none" stroke="#009A8C" stroke-linecap="round" stroke-linejoin="round" stroke-width="1"/><line x1="12.612" transform="translate(15.549 15.093)" fill="none" stroke="#009A8C" stroke-linecap="round" stroke-linejoin="round" stroke-width="1"/><line x1="13.867" y2="11.816" transform="translate(3.856 27.788)" fill="none" stroke="#009A8C" stroke-linecap="round" stroke-linejoin="round" stroke-width="1"/><line x2="13.906" y2="11.816" transform="translate(25.954 27.788)" fill="none" stroke="#009A8C" stroke-linecap="round" stroke-linejoin="round" stroke-width="1"/></g></svg>