<svg xmlns="http://www.w3.org/2000/svg" xmlns:xlink="http://www.w3.org/1999/xlink" width="60" height="60" viewBox="0 0 60 60"><defs><clipPath id="a"><rect width="60" height="60" transform="translate(415 669)" fill="#ec7e87" stroke="#acacac" stroke-width="1"/></clipPath></defs><g transform="translate(-415 -669)" clip-path="url(#a)"><g transform="translate(415.999 669)"><g transform="translate(0)"><path d="M11.633,8a1,1,0,0,0,1-1V1a1,1,0,0,0-2,0V7A1,1,0,0,0,11.633,8Z" transform="translate(17.368 0)" fill="#ec7e87"/><path d="M5.636,2.878l3,5.2a1,1,0,0,0,1.739-.989l-.007-.012-3-5.2a1,1,0,1,0-1.739.989Z" transform="translate(8.499 2.369)" fill="#ec7e87"/><path d="M2.238,7l5.2,3a1,1,0,0,0,1-1.732l-5.2-3A1,1,0,0,0,2.238,7Z" transform="translate(2.013 8.869)" fill="#ec7e87"/><path d="M8.367,11.267a1,1,0,0,0-1-1h-6a1,1,0,1,0,0,2h6A1,1,0,0,0,8.367,11.267Z" transform="translate(-0.366 17.734)" fill="#ec7e87"/><path d="M7.456,14.43l-.012.007-5.2,3a1,1,0,0,0,.988,1.739l.012-.007,5.2-3a1,1,0,1,0-.988-1.739Z" transform="translate(2.003 24.699)" fill="#ec7e87"/><path d="M24.323,17.437l-5.2-3a1,1,0,1,0-1.012,1.725l.012.007,5.2,3a1,1,0,0,0,1-1.732Z" transform="translate(29.429 24.699)" fill="#ec7e87"/><path d="M25.7,10.267h-6a1,1,0,1,0,0,2h6a1,1,0,1,0,0-2Z" transform="translate(31.302 17.734)" fill="#ec7e87"/><path d="M18.62,10.132a1,1,0,0,0,.5-.134l5.2-3a1,1,0,0,0-1-1.732l-5.2,3a1,1,0,0,0,.5,1.866Z" transform="translate(29.436 8.869)" fill="#ec7e87"/><path d="M15.167,8.444a1,1,0,0,0,1.366-.366l3-5.2a1,1,0,0,0-1.725-1.012l-.007.012-3,5.2A1,1,0,0,0,15.167,8.444Z" transform="translate(24.335 2.369)" fill="#ec7e87"/><path d="M20.5,5.134a15.018,15.018,0,0,0-15,15,1,1,0,0,0,2,0,13.016,13.016,0,0,1,13-13,1,1,0,0,0,0-2Z" transform="translate(8.501 8.867)" fill="#ec7e87"/><path d="M41.335,27.788v-.005c.032-.1.061-.208.086-.306.036-.138.066-.277.1-.416s.066-.278.085-.389A19,19,0,1,0,4.033,22.694c0,.445.019.887.05,1.326.016.243.04.49.07.749.056.51.128,1.016.225,1.517.008.041.011.083.022.124.044.229.1.451.153.673.031.129.061.258.094.386.015.054.023.1.04.162.04.149.087.29.131.436.047.162.092.324.144.484l.006.019c.09.291.192.574.315.889.023.061.047.121.071.181a1.277,1.277,0,0,0,.086.216l.005.012c.067.178.145.355.223.521l.013.025c.05.113.1.225.154.338.025.056.049.118.074.169A17.209,17.209,0,0,0,6.8,32.567l.093.148c.06.1.121.2.182.285l.123.183c.06.088.122.177.183.265.044.064.085.128.13.191.022.036.043.071.071.109s.044.056.066.084c.039.054.079.1.118.153.164.222.33.442.5.657l.012.016c.032.038.065.074.1.112.2.242.4.482.615.715H9c.178.2.367.388.555.578.06.059.115.122.175.181.026.025.049.053.075.078.27.26.55.509.827.755a16.4,16.4,0,0,0,1.658,1.276,1,1,0,0,0,.379.266l.391,2.912a.936.936,0,0,0-.028.163.985.985,0,0,0,.113.441l.736,5.472a.967.967,0,0,0,.077.273,8.546,8.546,0,0,0,.762,1.368v.007l.008.009a9.991,9.991,0,0,0,16.595,0l.008-.009.005-.007a8.545,8.545,0,0,0,.762-1.368.966.966,0,0,0,.077-.273l1.209-8.989a.983.983,0,0,0,.2-.093,19.016,19.016,0,0,0,7.734-10.7A.063.063,0,0,0,41.335,27.788ZM17.752,49.695H28.316A7.975,7.975,0,0,1,17.752,49.695Zm12.471-2.5c-.079.17-.166.337-.259.5H16.1c-.093-.162-.18-.329-.259-.5l-.605-4.5H30.827Zm.872-6.488c-.021,0-.039-.012-.06-.012H14.972l-.269-2H31.365ZM21.034,36.694V27.33l1.409,1.015a1,1,0,0,0,1.169,0l1.422-1.024v9.373ZM40,23.794c-.019.308-.047.606-.084.906v.023a1.181,1.181,0,0,0-.025.166v.02c-.006.03-.01.06-.014.092s-.006.05-.009.077a.634.634,0,0,1-.012.086c-.022.155-.045.309-.072.463-.013.07-.023.135-.04.214-.016.106-.041.22-.078.39v.018c-.025.12-.051.24-.079.359-.01.04-.017.074-.029.119a4.919,4.919,0,0,1-.126.487c-.019.071-.04.142-.06.213-.049.181-.1.358-.168.551-.082.256-.163.512-.263.757l-.039.1a4.019,4.019,0,0,1-.16.382.912.912,0,0,0-.055.134l-.02.045c-.089.224-.188.438-.316.7-.072.162-.152.315-.232.468l-.121.239a16.952,16.952,0,0,1-5.332,5.909.931.931,0,0,0-.158-.018h-5.47V28.288l.08.057a1,1,0,0,0,1.167,0l2.336-1.678A1,1,0,0,0,29.5,25.01l-.045.032L27.7,26.3l-1.753-1.259a1,1,0,0,0-1.168,0L23.028,26.3,21.28,25.043a1,1,0,0,0-1.169,0L18.364,26.3l-1.745-1.258a1,1,0,1,0-1.17,1.623l2.33,1.679a1,1,0,0,0,1.169,0l.086-.062v8.411h-5.47a1.08,1.08,0,0,0-.127.009,17.123,17.123,0,0,1-2.955-2.565c-.191-.208-.376-.428-.562-.653-.034-.041-.071-.081-.105-.123-.169-.2-.324-.412-.478-.626-.059-.08-.122-.157-.179-.238v-.006c-.008-.012-.015-.023-.023-.033L9.1,32.41c-.026-.034-.047-.069-.072-.1-.233-.338-.45-.686-.658-1.039-.2-.336-.381-.673-.549-1.016-.067-.133-.136-.265-.2-.4-.019-.047-.042-.1-.054-.129l-.049-.1L7.507,29.6V29.6a16.626,16.626,0,0,1-.643-1.669c-.018-.054-.035-.111-.053-.166-.091-.291-.176-.585-.252-.883a.27.27,0,0,0-.012-.047,1.207,1.207,0,0,0-.024-.119c-.018-.068-.031-.139-.047-.207-.048-.208-.1-.415-.138-.625a.408.408,0,0,0-.009-.069c-.053-.273-.1-.556-.134-.839a.787.787,0,0,0-.024-.184.691.691,0,0,0-.013-.09c-.037-.3-.064-.592-.084-.915-.032-.363-.041-.727-.041-1.09a17,17,0,1,1,34,0C40.035,23.057,40.026,23.421,40,23.794Z" transform="translate(5.968 6.308)" fill="#ec7e87"/></g></g></g></svg>