<svg xmlns="http://www.w3.org/2000/svg" xmlns:xlink="http://www.w3.org/1999/xlink" width="60" height="60" viewBox="0 0 60 60"><defs><clipPath id="a"><rect width="60" height="60" transform="translate(414.667 669)" fill="#ec7e87" stroke="#acacac" stroke-width="1"/></clipPath></defs><g transform="translate(-414.667 -669)" clip-path="url(#a)"><g transform="translate(414.995 677.209)"><path d="M48.4,19.058,43.612,23.85c-.063-.076-.129-.149-.2-.22l-6.187-6.187a.876.876,0,0,0-1.239,1.239l6.187,6.187A1.364,1.364,0,1,1,40.244,26.8l-3.438-3.438A.876.876,0,1,0,35.567,24.6l3.438,3.438h0a1.364,1.364,0,0,1-1.929,1.929l-3.438-3.438A.876.876,0,0,0,32.4,27.765L35.838,31.2a1.364,1.364,0,0,1-1.929,1.929l-3.438-3.438a.876.876,0,0,0-1.239,1.239l3.438,3.438A1.364,1.364,0,1,1,30.741,36.3l-2.227-2.227a3.084,3.084,0,0,0-.463-3.761L28,30.259a3.074,3.074,0,0,0-2.485-.885A3.074,3.074,0,0,0,23.181,26.6a3.081,3.081,0,0,0-4.2-3.885,3.077,3.077,0,0,0-5.138-1.338l-.361.361-.263-.263a2.227,2.227,0,0,1-.657-1.586V17.6a.876.876,0,0,0-.256-.619L8.562,13.244l1.051-1.052a.876.876,0,0,0-1.239-1.239L6.966,12.362a.682.682,0,0,1-.963,0L1.5,7.855A.876.876,0,0,0,.257,9.094L4.764,13.6a2.418,2.418,0,0,0,2.313.636l3.729,3.728v1.922a3.968,3.968,0,0,0,1.17,2.824l.263.263-.293.293a3.077,3.077,0,0,0,2.177,5.254h.037c0,.013,0,.026,0,.039a3.079,3.079,0,0,0,3.079,3.079h.039a3.072,3.072,0,0,0,3.076,3.115h.039a3.069,3.069,0,0,0,.9,2.216l.053.053a3.079,3.079,0,0,0,4.354,0l1.643-1.642L29.5,37.539a3.114,3.114,0,0,0,5.316-2.256h.055a3.112,3.112,0,0,0,3.113-3.171h.055A3.113,3.113,0,0,0,41.157,29c0-.018,0-.036,0-.055h.053a3.11,3.11,0,0,0,3.107-3.323L49.642,20.3A.876.876,0,0,0,48.4,19.058ZM13.184,26.382a1.327,1.327,0,0,1,0-1.876l1.893-1.893a1.327,1.327,0,1,1,1.876,1.876l-1.893,1.893a1.328,1.328,0,0,1-1.876,0Zm4.053,3.5a1.327,1.327,0,0,1-.938-2.265l1.893-1.893,1.177-1.177a1.327,1.327,0,0,1,1.876,1.876l-3.07,3.07a1.318,1.318,0,0,1-.938.389Zm2.177,2.726a1.328,1.328,0,0,1,0-1.876L21.5,28.647a1.327,1.327,0,0,1,1.877,1.876l-2.09,2.09A1.328,1.328,0,0,1,19.414,32.613Zm5.044,3.168a1.327,1.327,0,0,1-1.876,0l-.053-.053a1.328,1.328,0,0,1,0-1.876l2.089-2.089,0,0,.262-.262a1.328,1.328,0,0,1,1.876,0l.053.053a1.328,1.328,0,0,1,0,1.876Z" transform="translate(0 4.802)" fill="#ec7e87"/><path d="M52.624,19.374a.876.876,0,0,0-1.239,0L48.1,22.656a.119.119,0,0,1-.166,0l-11.6-11.084a.119.119,0,0,1,0-.17l6.882-6.882a.876.876,0,0,0-1.239-1.239l-6.882,6.882a1.866,1.866,0,0,0-.162,2.457l-3.15,3.089-2.968-1.655a2.616,2.616,0,0,0-1.272-.331H19.111l-.642-.642a5.9,5.9,0,0,0-2.086-1.351l-2.334-.889L12.97,9.765A2.435,2.435,0,0,0,12.6,6.8L9.09,3.283A.876.876,0,0,0,7.851,4.522l3.515,3.515a.682.682,0,0,1,0,.963L4.223,16.143a.876.876,0,0,0,1.239,1.239l6.324-6.324,1.157,1.157a.877.877,0,0,0,.308.2l2.509.956a4.163,4.163,0,0,1,1.438.922c-.053.045-.105.091-.155.141l-3.331,3.331a3.5,3.5,0,0,0,4.7,5.179l2.521-2.072h2.626l3,3a.876.876,0,1,0,1.239-1.239l-2.168-2.168a.875.875,0,0,0-.738-1.346H20.615a.876.876,0,0,0-.556.2L17.3,21.588A1.748,1.748,0,0,1,14.95,19l3.331-3.331a.656.656,0,0,1,.467-.193h8.795a.86.86,0,0,1,.418.109l3.282,1.83a1.278,1.278,0,0,0,1.507-.2l3.431-3.365,9.446,9.023-1.375,1.375a.876.876,0,0,0,1.239,1.239L46.9,24.072a1.88,1.88,0,0,0,2.437-.177l3.282-3.282A.876.876,0,0,0,52.624,19.374Z" transform="translate(6.791 -3.027)" fill="#ec7e87"/></g></g></svg>