<svg xmlns="http://www.w3.org/2000/svg" width="36" height="36" viewBox="0 0 36 36"><path d="M35.637,24.27,25.531,20.221a.562.562,0,0,0-.534.062l-4.606,3.276a24.918,24.918,0,0,1-8-8.011l3.284-4.575a.562.562,0,0,0,.073-.537L11.7.331a.562.562,0,0,0-.627-.354L.467,2.007a.543.543,0,0,0-.217.087h0a.5.5,0,0,0-.1.084A.562.562,0,0,0,0,2.558H0a33.46,33.46,0,0,0,33.407,33.41h0a.562.562,0,0,0,.38-.149.5.5,0,0,0,.084-.1h0a.543.543,0,0,0,.087-.217l2.033-10.6a.562.562,0,0,0-.354-.627ZM32.943,34.843A32.335,32.335,0,0,1,1.125,3.024l9.7-1.847,3.757,9.391-3.332,4.625a.562.562,0,0,0,0,.616,25.987,25.987,0,0,0,8.877,8.911.562.562,0,0,0,.613-.023L25.4,21.388l9.391,3.757Z" transform="translate(0 0.033)" fill="#009A8C"/></svg>