<svg xmlns="http://www.w3.org/2000/svg" viewBox="0 0 21.31 22.08"><path d="M15.92.5H5.39A4.89,4.89,0,0,0,.5,5.39v11.3a4.89,4.89,0,0,0,4.89,4.89H15.92a4.89,4.89,0,0,0,4.89-4.89V5.39A4.89,4.89,0,0,0,15.92.5Zm1.63,10.91a6.37,6.37,0,0,1-6.09,6h-.52a6.93,6.93,0,0,1-2.41-.57c-.23-.1-.47-.31-.65-.33a3.17,3.17,0,0,0-.77.23c-.74.22-1.51.42-2.24.67,0,0,0,0,0,0,.25-.72.44-1.47.68-2.24a4.06,4.06,0,0,0,.22-.74,3.28,3.28,0,0,0-.32-.7,6.77,6.77,0,0,1-.58-2.41v-.52a6.64,6.64,0,0,1,1.84-4.2,6.58,6.58,0,0,1,4.13-1.86h.74a6.37,6.37,0,0,1,6,6Z" fill="none" stroke="#fff" stroke-miterlimit="10" fill-rule="evenodd"/><path d="M13.32,11.91a1.52,1.52,0,0,1-1.24.67c-.73,0-1.13-.65-1.56-1.12a3.57,3.57,0,0,1-.73-.87C9.48,9.8,10,9.31,10.37,9A9,9,0,0,0,9.12,7.73,1.35,1.35,0,0,0,8.58,8.9a4.9,4.9,0,0,0,4.79,4.82,1.3,1.3,0,0,0,1.2-.6C14.16,12.71,13.77,12.28,13.32,11.91Z" fill="none" stroke="#fff" stroke-miterlimit="10" fill-rule="evenodd"/></svg>